<svg width="63" height="63" viewBox="0 0 63 63" fill="none" xmlns="http://www.w3.org/2000/svg">
<path d="M31.0492 43.3406C30.0142 43.3406 28.9792 43.263 27.996 43.0819C22.5105 42.2797 17.5166 39.123 14.3598 34.4396C12.1605 31.1276 10.9961 27.2723 10.9961 23.2875C10.9961 12.2389 20.0006 3.23438 31.0492 3.23438C42.0978 3.23438 51.1023 12.2389 51.1023 23.2875C51.1023 27.2723 49.938 31.1276 47.7386 34.4396C44.556 39.1489 39.5621 42.2798 34.0248 43.1078C33.1192 43.263 32.0842 43.3406 31.0492 43.3406ZM31.0492 7.11563C22.1223 7.11563 14.8773 14.3606 14.8773 23.2875C14.8773 26.5219 15.8088 29.6269 17.5683 32.2661C20.13 36.0439 24.1406 38.5796 28.5911 39.2265C30.2471 39.5111 31.8772 39.5111 33.4038 39.2265C37.932 38.5796 41.9426 36.018 44.5042 32.2402C46.2637 29.601 47.1952 26.496 47.1952 23.2616C47.2211 14.3606 39.9761 7.11563 31.0492 7.11563Z" fill="#99F2D1"/>
<path d="M16.7426 58.4515C16.3803 58.4515 16.044 58.3997 15.6817 58.3221C13.9998 57.934 12.7061 56.6402 12.318 54.9583L11.4123 51.1547C11.3606 50.9218 11.1795 50.7407 10.9207 50.6631L6.65134 49.654C5.04709 49.2659 3.77921 48.0756 3.33934 46.4972C2.89946 44.9188 3.33934 43.2111 4.50371 42.0467L14.595 31.9555C15.009 31.5415 15.5782 31.3345 16.1475 31.3862C16.7167 31.438 17.2342 31.7484 17.5706 32.2401C20.1322 36.0178 24.1428 38.5795 28.6192 39.2264C30.2752 39.511 31.9053 39.511 33.432 39.2264C37.9601 38.5795 41.9707 36.0178 44.5323 32.2401C44.8428 31.7484 45.3862 31.438 45.9555 31.3862C46.5247 31.3345 47.094 31.5415 47.508 31.9555L57.5992 42.0467C58.7636 43.2111 59.2035 44.9188 58.7636 46.4972C58.3237 48.0756 57.03 49.2917 55.4516 49.654L51.1822 50.6631C50.9493 50.7148 50.7682 50.8959 50.6906 51.1547L49.785 54.9583C49.3968 56.6402 48.1031 57.934 46.4212 58.3221C44.7393 58.7361 43.0057 58.1409 41.919 56.8213L31.0515 44.3237L20.184 56.8472C19.3042 57.8822 18.0622 58.4515 16.7426 58.4515ZM15.7593 36.3025L7.24646 44.8154C7.01359 45.0482 7.03946 45.307 7.09121 45.4622C7.11709 45.5916 7.24646 45.8503 7.55696 45.9021L11.8263 46.9112C13.5082 47.2994 14.802 48.5931 15.1901 50.275L16.0957 54.0786C16.1733 54.415 16.4321 54.5185 16.5873 54.5702C16.7426 54.5961 17.0013 54.622 17.2342 54.3632L27.1443 42.9524C22.7456 42.0985 18.7091 39.7438 15.7593 36.3025ZM34.9586 42.9265L44.8687 54.3114C45.1016 54.5961 45.3862 54.5961 45.5415 54.5443C45.6967 54.5184 45.9296 54.3891 46.0331 54.0528L46.9387 50.2491C47.3268 48.5673 48.6206 47.2735 50.3025 46.8853L54.5718 45.8762C54.8823 45.7986 55.0117 45.5657 55.0376 45.4363C55.0893 45.307 55.1152 45.0223 54.8823 44.7895L46.3695 36.2766C43.3938 39.7179 39.3832 42.0726 34.9586 42.9265Z" fill="#99F2D1"/>
<path d="M35.939 33.3528C35.2662 33.3528 34.4641 33.1717 33.5067 32.6024L31.0486 31.1275L28.5905 32.5765C26.3393 33.922 24.8645 33.1458 24.3211 32.7577C23.7777 32.3696 22.6133 31.2052 23.2085 28.6436L23.8295 25.9784L21.7595 24.0636C20.621 22.9251 20.207 21.5538 20.5951 20.3118C20.9832 19.0698 22.1217 18.19 23.726 17.9313L26.4946 17.4655L27.8142 14.5676C28.5646 13.0927 29.729 12.2646 31.0486 12.2646C32.3682 12.2646 33.5585 13.1186 34.283 14.5935L35.8096 17.6467L38.3712 17.9572C39.9496 18.2159 41.0881 19.0956 41.5021 20.3376C41.8902 21.5796 41.4762 22.951 40.3377 24.0895L38.1901 26.2372L38.8628 28.6436C39.458 31.2052 38.2936 32.3696 37.7502 32.7577C37.4656 32.9906 36.8446 33.3528 35.939 33.3528ZM24.8645 21.7091L26.6498 23.4944C27.4778 24.3224 27.8918 25.7197 27.6331 26.8582L27.1415 28.9282L29.2115 27.712C30.3241 27.0652 31.8248 27.0652 32.9116 27.712L34.9816 28.9282L34.5158 26.8582C34.2571 25.6938 34.6452 24.3224 35.4732 23.4944L37.2586 21.7091L35.0075 21.3209C33.9207 21.1398 32.834 20.3377 32.3423 19.3545L31.0486 16.8187L29.7548 19.4062C29.2891 20.3635 28.2023 21.1916 27.1156 21.3727L24.8645 21.7091Z" fill="#99F2D1"/>
</svg>
